<svg id="visual" viewBox="0 0 960 300" width="960" height="300" xmlns="http://www.w3.org/2000/svg" xmlns:xlink="http://www.w3.org/1999/xlink" version="1.1"><path d="M0 165L8 167.7C16 170.3 32 175.7 48 179.8C64 184 80 187 96 183.5C112 180 128 170 144 165.7C160 161.3 176 162.7 192 169.2C208 175.7 224 187.3 240 189.2C256 191 272 183 288 182.3C304 181.7 320 188.3 336 186.8C352 185.3 368 175.7 384 169.7C400 163.7 416 161.3 432 161.2C448 161 464 163 480 167.2C496 171.3 512 177.7 528 179.8C544 182 560 180 576 182.2C592 184.3 608 190.7 624 189.2C640 187.7 656 178.3 672 177.2C688 176 704 183 720 187C736 191 752 192 768 190.8C784 189.7 800 186.3 816 180C832 173.7 848 164.3 864 165C880 165.7 896 176.3 912 180.8C928 185.3 944 183.7 952 182.8L960 182L960 301L952 301C944 301 928 301 912 301C896 301 880 301 864 301C848 301 832 301 816 301C800 301 784 301 768 301C752 301 736 301 720 301C704 301 688 301 672 301C656 301 640 301 624 301C608 301 592 301 576 301C560 301 544 301 528 301C512 301 496 301 480 301C464 301 448 301 432 301C416 301 400 301 384 301C368 301 352 301 336 301C320 301 304 301 288 301C272 301 256 301 240 301C224 301 208 301 192 301C176 301 160 301 144 301C128 301 112 301 96 301C80 301 64 301 48 301C32 301 16 301 8 301L0 301Z" fill="#009473"></path><path d="M0 220L8 217C16 214 32 208 48 207C64 206 80 210 96 211.5C112 213 128 212 144 212.2C160 212.3 176 213.7 192 211.3C208 209 224 203 240 202.7C256 202.3 272 207.7 288 211.5C304 215.3 320 217.7 336 218C352 218.3 368 216.7 384 211C400 205.3 416 195.7 432 193C448 190.3 464 194.7 480 200C496 205.3 512 211.7 528 214.5C544 217.3 560 216.7 576 217.5C592 218.3 608 220.7 624 220C640 219.3 656 215.7 672 211C688 206.3 704 200.7 720 200.5C736 200.3 752 205.7 768 205.7C784 205.7 800 200.3 816 200.8C832 201.3 848 207.7 864 212.2C880 216.7 896 219.3 912 220C928 220.7 944 219.3 952 218.7L960 218L960 301L952 301C944 301 928 301 912 301C896 301 880 301 864 301C848 301 832 301 816 301C800 301 784 301 768 301C752 301 736 301 720 301C704 301 688 301 672 301C656 301 640 301 624 301C608 301 592 301 576 301C560 301 544 301 528 301C512 301 496 301 480 301C464 301 448 301 432 301C416 301 400 301 384 301C368 301 352 301 336 301C320 301 304 301 288 301C272 301 256 301 240 301C224 301 208 301 192 301C176 301 160 301 144 301C128 301 112 301 96 301C80 301 64 301 48 301C32 301 16 301 8 301L0 301Z" fill="#00a667"></path><path d="M0 232L8 233.7C16 235.3 32 238.7 48 237.8C64 237 80 232 96 230.7C112 229.3 128 231.7 144 230.5C160 229.3 176 224.7 192 225.2C208 225.7 224 231.3 240 233.5C256 235.7 272 234.3 288 236C304 237.7 320 242.3 336 245C352 247.7 368 248.3 384 246.8C400 245.3 416 241.7 432 241.5C448 241.3 464 244.7 480 246.3C496 248 512 248 528 246C544 244 560 240 576 239.2C592 238.3 608 240.7 624 241.7C640 242.7 656 242.3 672 238.3C688 234.3 704 226.7 720 223.2C736 219.7 752 220.3 768 221.5C784 222.7 800 224.3 816 225.3C832 226.3 848 226.7 864 225.8C880 225 896 223 912 225.8C928 228.7 944 236.3 952 240.2L960 244L960 301L952 301C944 301 928 301 912 301C896 301 880 301 864 301C848 301 832 301 816 301C800 301 784 301 768 301C752 301 736 301 720 301C704 301 688 301 672 301C656 301 640 301 624 301C608 301 592 301 576 301C560 301 544 301 528 301C512 301 496 301 480 301C464 301 448 301 432 301C416 301 400 301 384 301C368 301 352 301 336 301C320 301 304 301 288 301C272 301 256 301 240 301C224 301 208 301 192 301C176 301 160 301 144 301C128 301 112 301 96 301C80 301 64 301 48 301C32 301 16 301 8 301L0 301Z" fill="#04b750"></path><path d="M0 268L8 268.3C16 268.7 32 269.3 48 266.7C64 264 80 258 96 257C112 256 128 260 144 260.7C160 261.3 176 258.7 192 259C208 259.3 224 262.7 240 261.7C256 260.7 272 255.3 288 256.2C304 257 320 264 336 266.5C352 269 368 267 384 267.3C400 267.7 416 270.3 432 270.3C448 270.3 464 267.7 480 265C496 262.3 512 259.7 528 260.3C544 261 560 265 576 265.7C592 266.3 608 263.7 624 262.3C640 261 656 261 672 261.2C688 261.3 704 261.7 720 259.8C736 258 752 254 768 255.5C784 257 800 264 816 266.2C832 268.3 848 265.7 864 265.8C880 266 896 269 912 270.2C928 271.3 944 270.7 952 270.3L960 270L960 301L952 301C944 301 928 301 912 301C896 301 880 301 864 301C848 301 832 301 816 301C800 301 784 301 768 301C752 301 736 301 720 301C704 301 688 301 672 301C656 301 640 301 624 301C608 301 592 301 576 301C560 301 544 301 528 301C512 301 496 301 480 301C464 301 448 301 432 301C416 301 400 301 384 301C368 301 352 301 336 301C320 301 304 301 288 301C272 301 256 301 240 301C224 301 208 301 192 301C176 301 160 301 144 301C128 301 112 301 96 301C80 301 64 301 48 301C32 301 16 301 8 301L0 301Z" fill="#2ec724"></path></svg>