<svg id="visual" viewBox="0 0 900 600" width="900" height="600" xmlns="http://www.w3.org/2000/svg" xmlns:xlink="http://www.w3.org/1999/xlink" version="1.1"><rect x="0" y="0" width="900" height="600" fill="#ffffff"></rect><defs><linearGradient id="grad1_0" x1="33.3%" y1="0%" x2="100%" y2="100%"><stop offset="20%" stop-color="#00943a" stop-opacity="1"></stop><stop offset="80%" stop-color="#00943a" stop-opacity="1"></stop></linearGradient></defs><defs><linearGradient id="grad1_1" x1="33.3%" y1="0%" x2="100%" y2="100%"><stop offset="20%" stop-color="#00943a" stop-opacity="1"></stop><stop offset="80%" stop-color="#ffffff" stop-opacity="1"></stop></linearGradient></defs><defs><linearGradient id="grad2_0" x1="0%" y1="0%" x2="66.7%" y2="100%"><stop offset="20%" stop-color="#00943a" stop-opacity="1"></stop><stop offset="80%" stop-color="#00943a" stop-opacity="1"></stop></linearGradient></defs><defs><linearGradient id="grad2_1" x1="0%" y1="0%" x2="66.7%" y2="100%"><stop offset="20%" stop-color="#ffffff" stop-opacity="1"></stop><stop offset="80%" stop-color="#00943a" stop-opacity="1"></stop></linearGradient></defs><g transform="translate(900, 0)"><path d="M0 405.6C-56.3 404.1 -112.6 402.6 -155.2 374.7C-197.8 346.9 -226.7 292.6 -247.5 247.5C-268.2 202.4 -280.8 166.4 -305.8 126.7C-330.8 86.9 -368.2 43.5 -405.6 0L0 0Z" fill="#96ca9a"></path><path d="M0 202.8C-28.2 202.1 -56.3 201.3 -77.6 187.4C-98.9 173.4 -113.4 146.3 -123.7 123.7C-134.1 101.2 -140.4 83.2 -152.9 63.3C-165.4 43.5 -184.1 21.7 -202.8 0L0 0Z" fill="#00943a"></path></g><g transform="translate(0, 600)"><path d="M0 -405.6C56.3 -395.3 112.7 -385 145.4 -351.1C178.1 -317.2 187.3 -259.7 227.7 -227.7C268.1 -195.6 339.9 -188.9 374.7 -155.2C409.6 -121.5 407.6 -60.8 405.6 0L0 0Z" fill="#96ca9a"></path><path d="M0 -202.8C28.2 -197.6 56.3 -192.5 72.7 -175.5C89.1 -158.6 93.6 -129.9 113.8 -113.8C134.1 -97.8 169.9 -94.5 187.4 -77.6C204.8 -60.8 203.8 -30.4 202.8 0L0 0Z" fill="#00943a"></path></g></svg>