<svg id="visual" viewBox="0 0 960 300" width="960" height="300" xmlns="http://www.w3.org/2000/svg" xmlns:xlink="http://www.w3.org/1999/xlink" version="1.1"><path d="M0 245L22.8 237.7C45.7 230.3 91.3 215.7 137 210.8C182.7 206 228.3 211 274 218.8C319.7 226.7 365.3 237.3 411.2 230.2C457 223 503 198 548.8 196.8C594.7 195.7 640.3 218.3 686 217.2C731.7 216 777.3 191 823 185.7C868.7 180.3 914.3 194.7 937.2 201.8L960 209L960 0L937.2 0C914.3 0 868.7 0 823 0C777.3 0 731.7 0 686 0C640.3 0 594.7 0 548.8 0C503 0 457 0 411.2 0C365.3 0 319.7 0 274 0C228.3 0 182.7 0 137 0C91.3 0 45.7 0 22.8 0L0 0Z" fill="#005c5b"></path><path d="M0 160L22.8 153.2C45.7 146.3 91.3 132.7 137 132.5C182.7 132.3 228.3 145.7 274 158.8C319.7 172 365.3 185 411.2 191.3C457 197.7 503 197.3 548.8 187C594.7 176.7 640.3 156.3 686 153.5C731.7 150.7 777.3 165.3 823 173.5C868.7 181.7 914.3 183.3 937.2 184.2L960 185L960 0L937.2 0C914.3 0 868.7 0 823 0C777.3 0 731.7 0 686 0C640.3 0 594.7 0 548.8 0C503 0 457 0 411.2 0C365.3 0 319.7 0 274 0C228.3 0 182.7 0 137 0C91.3 0 45.7 0 22.8 0L0 0Z" fill="#007a66"></path><path d="M0 152L22.8 149.5C45.7 147 91.3 142 137 142.2C182.7 142.3 228.3 147.7 274 145.5C319.7 143.3 365.3 133.7 411.2 122.8C457 112 503 100 548.8 103.5C594.7 107 640.3 126 686 127.3C731.7 128.7 777.3 112.3 823 106.2C868.7 100 914.3 104 937.2 106L960 108L960 0L937.2 0C914.3 0 868.7 0 823 0C777.3 0 731.7 0 686 0C640.3 0 594.7 0 548.8 0C503 0 457 0 411.2 0C365.3 0 319.7 0 274 0C228.3 0 182.7 0 137 0C91.3 0 45.7 0 22.8 0L0 0Z" fill="#249764"></path><path d="M0 58L22.8 66.2C45.7 74.3 91.3 90.7 137 95.7C182.7 100.7 228.3 94.3 274 91.3C319.7 88.3 365.3 88.7 411.2 88C457 87.3 503 85.7 548.8 86.2C594.7 86.7 640.3 89.3 686 86.5C731.7 83.7 777.3 75.3 823 69.5C868.7 63.7 914.3 60.3 937.2 58.7L960 57L960 0L937.2 0C914.3 0 868.7 0 823 0C777.3 0 731.7 0 686 0C640.3 0 594.7 0 548.8 0C503 0 457 0 411.2 0C365.3 0 319.7 0 274 0C228.3 0 182.7 0 137 0C91.3 0 45.7 0 22.8 0L0 0Z" fill="#5eb357"></path><path d="M0 54L22.8 56.3C45.7 58.7 91.3 63.3 137 60.8C182.7 58.3 228.3 48.7 274 48.3C319.7 48 365.3 57 411.2 58C457 59 503 52 548.8 45.2C594.7 38.3 640.3 31.7 686 31.2C731.7 30.7 777.3 36.3 823 39.8C868.7 43.3 914.3 44.7 937.2 45.3L960 46L960 0L937.2 0C914.3 0 868.7 0 823 0C777.3 0 731.7 0 686 0C640.3 0 594.7 0 548.8 0C503 0 457 0 411.2 0C365.3 0 319.7 0 274 0C228.3 0 182.7 0 137 0C91.3 0 45.7 0 22.8 0L0 0Z" fill="#9dcc42"></path></svg>