<svg id="visual" viewBox="0 0 960 300" width="960" height="300" xmlns="http://www.w3.org/2000/svg" xmlns:xlink="http://www.w3.org/1999/xlink" version="1.1"><path d="M0 150L14.5 147.3C29 144.7 58 139.3 87.2 133.3C116.3 127.3 145.7 120.7 174.8 117.8C204 115 233 116 262 120.2C291 124.3 320 131.7 349 138.7C378 145.7 407 152.3 436.2 152.5C465.3 152.7 494.7 146.3 523.8 143.5C553 140.7 582 141.3 611 143.2C640 145 669 148 698 147.2C727 146.3 756 141.7 785.2 135.8C814.3 130 843.7 123 872.8 120.8C902 118.7 931 121.3 945.5 122.7L960 124L960 301L945.5 301C931 301 902 301 872.8 301C843.7 301 814.3 301 785.2 301C756 301 727 301 698 301C669 301 640 301 611 301C582 301 553 301 523.8 301C494.7 301 465.3 301 436.2 301C407 301 378 301 349 301C320 301 291 301 262 301C233 301 204 301 174.8 301C145.7 301 116.3 301 87.2 301C58 301 29 301 14.5 301L0 301Z" fill="#009473"></path><path d="M0 178L14.5 175.2C29 172.3 58 166.7 87.2 165.3C116.3 164 145.7 167 174.8 169C204 171 233 172 262 169.8C291 167.7 320 162.3 349 158.5C378 154.7 407 152.3 436.2 155.3C465.3 158.3 494.7 166.7 523.8 167C553 167.3 582 159.7 611 160.3C640 161 669 170 698 174.5C727 179 756 179 785.2 179C814.3 179 843.7 179 872.8 175C902 171 931 163 945.5 159L960 155L960 301L945.5 301C931 301 902 301 872.8 301C843.7 301 814.3 301 785.2 301C756 301 727 301 698 301C669 301 640 301 611 301C582 301 553 301 523.8 301C494.7 301 465.3 301 436.2 301C407 301 378 301 349 301C320 301 291 301 262 301C233 301 204 301 174.8 301C145.7 301 116.3 301 87.2 301C58 301 29 301 14.5 301L0 301Z" fill="#009f6d"></path><path d="M0 177L14.5 178.8C29 180.7 58 184.3 87.2 189C116.3 193.7 145.7 199.3 174.8 197C204 194.7 233 184.3 262 179C291 173.7 320 173.3 349 177.3C378 181.3 407 189.7 436.2 192.2C465.3 194.7 494.7 191.3 523.8 187.3C553 183.3 582 178.7 611 175.7C640 172.7 669 171.3 698 176.5C727 181.7 756 193.3 785.2 197C814.3 200.7 843.7 196.3 872.8 194.2C902 192 931 192 945.5 192L960 192L960 301L945.5 301C931 301 902 301 872.8 301C843.7 301 814.3 301 785.2 301C756 301 727 301 698 301C669 301 640 301 611 301C582 301 553 301 523.8 301C494.7 301 465.3 301 436.2 301C407 301 378 301 349 301C320 301 291 301 262 301C233 301 204 301 174.8 301C145.7 301 116.3 301 87.2 301C58 301 29 301 14.5 301L0 301Z" fill="#00aa63"></path><path d="M0 210L14.5 210.2C29 210.3 58 210.7 87.2 209.5C116.3 208.3 145.7 205.7 174.8 204.7C204 203.7 233 204.3 262 203.8C291 203.3 320 201.7 349 202C378 202.3 407 204.7 436.2 209.3C465.3 214 494.7 221 523.8 223.8C553 226.7 582 225.3 611 222C640 218.7 669 213.3 698 210.8C727 208.3 756 208.7 785.2 209C814.3 209.3 843.7 209.7 872.8 210.8C902 212 931 214 945.5 215L960 216L960 301L945.5 301C931 301 902 301 872.8 301C843.7 301 814.3 301 785.2 301C756 301 727 301 698 301C669 301 640 301 611 301C582 301 553 301 523.8 301C494.7 301 465.3 301 436.2 301C407 301 378 301 349 301C320 301 291 301 262 301C233 301 204 301 174.8 301C145.7 301 116.3 301 87.2 301C58 301 29 301 14.5 301L0 301Z" fill="#00b455"></path><path d="M0 240L14.5 240.7C29 241.3 58 242.7 87.2 242.8C116.3 243 145.7 242 174.8 240C204 238 233 235 262 235.2C291 235.3 320 238.7 349 239.3C378 240 407 238 436.2 237C465.3 236 494.7 236 523.8 236.2C553 236.3 582 236.7 611 237C640 237.3 669 237.7 698 237.5C727 237.3 756 236.7 785.2 234.8C814.3 233 843.7 230 872.8 231.8C902 233.7 931 240.3 945.5 243.7L960 247L960 301L945.5 301C931 301 902 301 872.8 301C843.7 301 814.3 301 785.2 301C756 301 727 301 698 301C669 301 640 301 611 301C582 301 553 301 523.8 301C494.7 301 465.3 301 436.2 301C407 301 378 301 349 301C320 301 291 301 262 301C233 301 204 301 174.8 301C145.7 301 116.3 301 87.2 301C58 301 29 301 14.5 301L0 301Z" fill="#15be42"></path><path d="M0 256L14.5 256.3C29 256.7 58 257.3 87.2 260.2C116.3 263 145.7 268 174.8 268.3C204 268.7 233 264.3 262 262.2C291 260 320 260 349 260.8C378 261.7 407 263.3 436.2 264.3C465.3 265.3 494.7 265.7 523.8 264C553 262.3 582 258.7 611 258.2C640 257.7 669 260.3 698 262.5C727 264.7 756 266.3 785.2 267.7C814.3 269 843.7 270 872.8 269.8C902 269.7 931 268.3 945.5 267.7L960 267L960 301L945.5 301C931 301 902 301 872.8 301C843.7 301 814.3 301 785.2 301C756 301 727 301 698 301C669 301 640 301 611 301C582 301 553 301 523.8 301C494.7 301 465.3 301 436.2 301C407 301 378 301 349 301C320 301 291 301 262 301C233 301 204 301 174.8 301C145.7 301 116.3 301 87.2 301C58 301 29 301 14.5 301L0 301Z" fill="#2ec724"></path></svg>