<svg id="visual" viewBox="0 0 900 600" width="900" height="600" xmlns="http://www.w3.org/2000/svg" xmlns:xlink="http://www.w3.org/1999/xlink" version="1.1"><rect x="0" y="0" width="900" height="600" fill="#ffffff"></rect><path d="M0 378L21.5 369.3C43 360.7 86 343.3 128.8 344.5C171.7 345.7 214.3 365.3 257.2 361.2C300 357 343 329 385.8 324C428.7 319 471.3 337 514.2 350.2C557 363.3 600 371.7 642.8 378.7C685.7 385.7 728.3 391.3 771.2 383.3C814 375.3 857 353.7 878.5 342.8L900 332L900 0L878.5 0C857 0 814 0 771.2 0C728.3 0 685.7 0 642.8 0C600 0 557 0 514.2 0C471.3 0 428.7 0 385.8 0C343 0 300 0 257.2 0C214.3 0 171.7 0 128.8 0C86 0 43 0 21.5 0L0 0Z" fill="#fa7268"></path><path d="M0 288L21.5 291.5C43 295 86 302 128.8 299.8C171.7 297.7 214.3 286.3 257.2 277C300 267.7 343 260.3 385.8 263.5C428.7 266.7 471.3 280.3 514.2 281.3C557 282.3 600 270.7 642.8 278C685.7 285.3 728.3 311.7 771.2 314C814 316.3 857 294.7 878.5 283.8L900 273L900 0L878.5 0C857 0 814 0 771.2 0C728.3 0 685.7 0 642.8 0C600 0 557 0 514.2 0C471.3 0 428.7 0 385.8 0C343 0 300 0 257.2 0C214.3 0 171.7 0 128.8 0C86 0 43 0 21.5 0L0 0Z" fill="#f36567"></path><path d="M0 281L21.5 270.7C43 260.3 86 239.7 128.8 236.5C171.7 233.3 214.3 247.7 257.2 259.8C300 272 343 282 385.8 283.8C428.7 285.7 471.3 279.3 514.2 272.7C557 266 600 259 642.8 248.7C685.7 238.3 728.3 224.7 771.2 225.2C814 225.7 857 240.3 878.5 247.7L900 255L900 0L878.5 0C857 0 814 0 771.2 0C728.3 0 685.7 0 642.8 0C600 0 557 0 514.2 0C471.3 0 428.7 0 385.8 0C343 0 300 0 257.2 0C214.3 0 171.7 0 128.8 0C86 0 43 0 21.5 0L0 0Z" fill="#eb5967"></path><path d="M0 217L21.5 215C43 213 86 209 128.8 208C171.7 207 214.3 209 257.2 202.5C300 196 343 181 385.8 183.2C428.7 185.3 471.3 204.7 514.2 213.2C557 221.7 600 219.3 642.8 215C685.7 210.7 728.3 204.3 771.2 203.3C814 202.3 857 206.7 878.5 208.8L900 211L900 0L878.5 0C857 0 814 0 771.2 0C728.3 0 685.7 0 642.8 0C600 0 557 0 514.2 0C471.3 0 428.7 0 385.8 0C343 0 300 0 257.2 0C214.3 0 171.7 0 128.8 0C86 0 43 0 21.5 0L0 0Z" fill="#e34c67"></path><path d="M0 148L21.5 153.3C43 158.7 86 169.3 128.8 170.2C171.7 171 214.3 162 257.2 152.7C300 143.3 343 133.7 385.8 129.7C428.7 125.7 471.3 127.3 514.2 135.8C557 144.3 600 159.7 642.8 162.8C685.7 166 728.3 157 771.2 149.5C814 142 857 136 878.5 133L900 130L900 0L878.5 0C857 0 814 0 771.2 0C728.3 0 685.7 0 642.8 0C600 0 557 0 514.2 0C471.3 0 428.7 0 385.8 0C343 0 300 0 257.2 0C214.3 0 171.7 0 128.8 0C86 0 43 0 21.5 0L0 0Z" fill="#da3f67"></path><path d="M0 110L21.5 110.5C43 111 86 112 128.8 111.8C171.7 111.7 214.3 110.3 257.2 112.3C300 114.3 343 119.7 385.8 121.5C428.7 123.3 471.3 121.7 514.2 117.3C557 113 600 106 642.8 104.3C685.7 102.7 728.3 106.3 771.2 112.3C814 118.3 857 126.7 878.5 130.8L900 135L900 0L878.5 0C857 0 814 0 771.2 0C728.3 0 685.7 0 642.8 0C600 0 557 0 514.2 0C471.3 0 428.7 0 385.8 0C343 0 300 0 257.2 0C214.3 0 171.7 0 128.8 0C86 0 43 0 21.5 0L0 0Z" fill="#d03267"></path><path d="M0 45L21.5 47C43 49 86 53 128.8 57.2C171.7 61.3 214.3 65.7 257.2 68.3C300 71 343 72 385.8 69.2C428.7 66.3 471.3 59.7 514.2 57.8C557 56 600 59 642.8 63.7C685.7 68.3 728.3 74.7 771.2 73.2C814 71.7 857 62.3 878.5 57.7L900 53L900 0L878.5 0C857 0 814 0 771.2 0C728.3 0 685.7 0 642.8 0C600 0 557 0 514.2 0C471.3 0 428.7 0 385.8 0C343 0 300 0 257.2 0C214.3 0 171.7 0 128.8 0C86 0 43 0 21.5 0L0 0Z" fill="#c62368"></path></svg>